<?xml version="1.0" standalone="no"?>
<!DOCTYPE svg PUBLIC "-//W3C//DTD SVG 20010904//EN"
 "http://www.w3.org/TR/2001/REC-SVG-20010904/DTD/svg10.dtd">
<svg version="1.0" xmlns="http://www.w3.org/2000/svg"
 width="250.000000pt" height="250.000000pt" viewBox="0 0 250.000000 250.000000"
 preserveAspectRatio="xMidYMid meet">
<metadata>
Created by potrace 1.10, written by Peter Selinger 2001-2011
</metadata>
<g transform="translate(0.000000,250.000000) scale(0.100000,-0.100000)"
fill="#000000" stroke="none">
<path d="M410 2184 c-196 -24 -288 -81 -298 -185 -6 -66 10 -99 78 -158 72
-62 87 -103 100 -262 13 -150 12 -545 0 -686 -13 -146 -36 -210 -96 -258 -53
-44 -74 -81 -74 -133 0 -86 75 -143 213 -161 101 -14 428 -14 535 -1 168 21
252 77 252 166 0 61 -20 96 -85 145 -59 45 -75 77 -75 157 0 50 23 112 42 112
47 0 200 -159 386 -402 46 -59 96 -118 113 -132 l31 -26 321 0 c292 0 326 2
362 19 61 28 87 62 93 120 9 97 -22 143 -137 200 -75 38 -79 42 -356 362 -154
177 -297 345 -317 372 -43 56 -48 95 -19 142 18 30 227 231 259 249 9 5 61 11
117 14 108 5 134 14 179 61 24 25 30 42 34 88 3 48 0 64 -20 92 -52 76 -125
99 -343 108 -243 9 -430 -18 -496 -74 -60 -51 -73 -118 -39 -198 11 -26 20
-55 20 -65 0 -39 -198 -280 -230 -280 -36 0 -39 145 -5 225 7 18 36 58 64 89
48 53 51 59 51 110 0 89 -48 140 -162 173 -52 14 -415 27 -498 17z m493 -48
c100 -27 137 -66 137 -145 0 -35 -7 -49 -51 -97 -63 -69 -78 -104 -85 -196 -8
-98 9 -152 50 -156 24 -3 38 7 90 60 79 81 164 195 172 231 3 17 -3 51 -17 91
-20 56 -22 68 -11 105 25 81 121 115 357 127 160 7 329 -7 401 -33 67 -25 97
-70 91 -136 -3 -38 -11 -56 -35 -80 -30 -30 -36 -31 -144 -38 -62 -4 -116 -8
-120 -8 -12 -1 -199 -167 -241 -214 -75 -83 -87 -140 -44 -205 13 -21 73 -94
133 -163 60 -69 178 -206 263 -305 214 -249 226 -260 315 -306 90 -47 116 -80
116 -146 0 -53 -22 -87 -71 -113 -35 -18 -61 -19 -355 -19 l-316 0 -37 38
c-20 20 -79 93 -131 162 -52 69 -144 175 -205 237 -140 142 -176 154 -217 72
-22 -43 -24 -143 -3 -193 9 -20 38 -53 68 -77 62 -49 76 -72 77 -120 1 -107
-141 -151 -492 -150 -273 0 -399 26 -432 90 -33 63 -16 112 63 179 57 48 65
69 87 222 19 133 18 639 -1 784 -17 128 -41 183 -98 228 -61 46 -77 69 -77
111 0 100 82 158 253 177 114 14 442 4 510 -14z"/>
<path d="M1057 2145 l43 -45 0 -100 0 -99 -50 -57 c-32 -37 -56 -75 -65 -108
-16 -54 -20 -97 -7 -95 4 0 42 48 86 107 78 104 78 106 66 140 -7 20 -11 70
-9 125 2 51 0 98 -5 105 -9 15 -85 72 -96 72 -4 0 13 -20 37 -45z"/>
<path d="M2054 2149 c47 -52 56 -76 56 -155 0 -75 -14 -108 -65 -152 -42 -37
-51 -40 -173 -45 -78 -4 -98 -8 -130 -30 -49 -34 -213 -196 -231 -229 -17 -33
-21 -28 259 -352 366 -425 348 -406 436 -451 64 -32 85 -50 112 -89 30 -45 32
-54 32 -131 l0 -83 -42 -46 c-67 -72 -101 -78 -481 -74 l-314 3 -34 26 c-19
15 -64 64 -100 110 -151 194 -196 248 -273 327 -44 45 -84 82 -88 82 -4 0 -10
-15 -13 -34 -7 -34 24 -126 42 -126 11 0 76 -60 96 -90 12 -18 17 -46 17 -102
0 -75 -1 -79 -35 -117 -74 -81 -175 -101 -521 -101 -319 0 -402 14 -479 81
-19 17 -35 28 -35 24 0 -18 46 -67 83 -89 76 -44 167 -56 441 -56 349 0 477
24 552 101 29 31 42 113 29 194 -6 42 -16 58 -81 126 -70 74 -93 119 -60 119
21 0 144 -137 256 -286 102 -135 162 -198 207 -215 29 -11 727 -12 738 -1 4 4
10 7 13 8 36 4 96 58 111 97 15 38 14 150 -1 201 -16 52 -75 112 -153 153 -33
17 -70 41 -82 52 -26 25 -516 588 -555 639 -42 54 -37 81 27 146 30 31 57 56
60 56 3 0 22 17 43 39 61 64 98 81 173 81 124 0 158 9 205 55 l44 42 0 90 c0
127 -7 150 -56 200 -55 54 -79 57 -30 2z"/>
<path d="M96 1842 c10 -18 33 -44 50 -57 18 -14 42 -46 55 -72 27 -55 38 -40
15 21 -14 37 -39 63 -120 126 -20 15 -20 15 0 -18z"/>
</g>
</svg>
